PathFileType	4	(X/Y/Z)	C:/Users/alexw/Dropbox/ABI/BIOMENG 771 Files/BIOMENG_771/KinematicsLab/Left.trc	
DataRate	CameraRate	NumFrames	NumMarkers	Units	OrigDataRate	OrigDataStartFrame	OrigNumFrames	
120.00	120.00	26	8	mm	120.00	560	1491	
Frame#	Time	RAsis			LAsis			RPsis			LPsis			LThighSuperior			LThighInferior			LThighLateral			LPatella			
		X1	Y1	Z1	X2	Y2	Z2	X3	Y3	Z3	X4	Y4	Z4	X5	Y5	Z5	X6	Y6	Z6	X7	Y7	Z7	X8	Y8	Z8	

560	4.658	-623.24133	110.35007	987.87665	-369.21982	169.33142	1043.48901	-558.96417	346.34781	1016.59027	-502.42291	361.32428	1027.25989	-282.41394	241.83514	886.01221	-209.28284	181.89001	657.86719	-271.53290	135.51898	763.50153	-214.51434	122.67337	573.00903 
561	4.667	-622.75427	110.92469	987.82977	-368.55499	169.55083	1043.21155	-558.13733	346.87555	1016.77997	-501.59357	361.83398	1027.14758	-282.92917	241.17323	884.09583	-213.76431	180.44774	654.60498	-273.96912	134.62990	761.40930	-220.74510	121.13998	570.01202 
562	4.675	-622.19934	111.58966	987.77734	-367.88113	169.91356	1042.93494	-557.52460	347.38641	1016.79797	-500.67874	362.34875	1027.05273	-283.17123	240.18816	882.28125	-218.36514	179.09689	651.37616	-276.76385	133.65492	759.39844	-227.34636	119.50624	566.80359 
563	4.683	-621.61267	112.12383	987.73297	-367.16174	170.27791	1042.62476	-556.70935	347.97971	1016.91333	-499.82928	362.84180	1026.88232	-283.78687	239.15593	880.30670	-223.15825	177.44456	648.35107	-279.58548	132.77199	757.44910	-234.06493	117.77495	563.96320 
564	4.692	-620.96118	112.79124	987.59784	-366.35263	170.79277	1042.31104	-556.13934	348.57220	1016.92303	-499.25146	363.37213	1026.81921	-284.24139	238.29031	878.19653	-227.87657	175.84143	645.37799	-282.32755	132.15495	755.44128	-240.82758	115.92381	561.22156 
565	4.700	-620.41809	113.40030	987.50598	-365.69183	171.26421	1041.98865	-555.43903	349.33847	1016.98816	-498.29987	364.09778	1026.51538	-284.85519	237.36717	876.24158	-232.74576	174.00525	642.49158	-285.51498	131.24850	753.59601	-247.66602	114.13674	558.46533 
566	4.708	-619.78204	113.95367	987.43024	-364.88388	171.68300	1041.77332	-554.84290	349.91034	1016.97528	-497.64508	364.54404	1026.37585	-285.49356	236.67520	874.30176	-237.68010	172.05290	639.89240	-288.48697	130.48500	751.72711	-254.58142	112.16525	556.03241 
567	4.717	-619.15594	114.54205	987.40491	-364.11185	172.11041	1041.51294	-554.07538	350.33359	1016.70941	-496.86255	365.11050	1026.18701	-286.02628	235.94420	872.28711	-242.52036	170.08501	637.29547	-291.94724	129.60545	750.00690	-261.40256	110.24528	553.85486 
568	4.725	-618.50507	115.12664	987.37579	-363.42078	172.55676	1041.29138	-553.27869	350.91138	1016.63733	-496.24084	365.56110	1026.06348	-286.72937	235.34499	870.40051	-247.41174	167.92879	634.93561	-295.61642	128.70369	748.17419	-268.26413	108.18031	551.57477 
569	4.733	-617.91614	115.60400	987.38745	-362.64944	173.03714	1041.05261	-552.66925	351.40967	1016.62683	-495.62097	365.99939	1025.86816	-287.46280	234.61548	868.76123	-252.39827	165.63866	632.66437	-299.35071	127.60622	746.71002	-275.26633	106.15298	549.69202 
570	4.742	-617.44989	116.08923	987.26337	-361.84842	173.46886	1040.79456	-552.08655	351.87027	1016.58093	-494.71027	366.38910	1025.52319	-288.35727	233.53220	866.97693	-257.50485	163.16850	630.55029	-303.41614	126.40508	745.22742	-282.36441	104.10291	547.70416 
571	4.750	-616.94373	116.54578	987.18420	-361.08823	173.81033	1040.54480	-551.39380	352.34808	1016.50757	-494.03107	366.74133	1025.25598	-289.25800	232.62128	865.56647	-262.66306	160.59756	628.44073	-307.87610	124.84184	743.80988	-289.62943	101.72380	545.80981 
572	4.758	-616.34546	116.98317	987.12933	-360.40027	174.00911	1040.22034	-550.90015	352.90118	1016.35339	-493.34122	367.09470	1025.05811	-290.30957	231.27151	863.98871	-267.81558	157.84364	626.48474	-312.55164	123.09836	742.44055	-296.75504	99.85738	543.95123 
573	4.767	-615.86108	117.41268	987.11761	-359.67169	174.14258	1039.83972	-550.29962	353.27872	1016.30298	-492.70200	367.37061	1024.81958	-291.53607	229.71886	862.56488	-272.83435	155.16580	624.71625	-317.19611	121.37415	741.25659	-303.80505	97.80848	542.23401 
574	4.775	-615.40375	117.92238	987.03857	-359.02997	174.23779	1039.41968	-549.61774	353.65952	1016.04950	-492.03494	367.63687	1024.58057	-292.87436	227.85074	861.00031	-277.77545	152.31508	623.05109	-321.84753	119.39461	740.16815	-310.36133	95.74858	540.72308 
575	4.783	-615.09192	118.41183	987.00726	-358.49475	174.21808	1039.03809	-549.04260	354.10413	1015.88989	-491.44778	367.82819	1024.13025	-294.11850	225.81908	859.47278	-282.76935	149.57185	621.61139	-326.69675	117.48708	739.14551	-316.45865	93.77872	539.34308 
576	4.792	-614.95807	118.93844	986.93341	-357.89474	174.13895	1038.57471	-548.50598	354.45285	1015.71179	-490.80359	368.13797	1023.94800	-295.45313	223.67708	858.04993	-287.60709	147.02264	620.25244	-331.55396	115.63439	738.16980	-322.43411	92.00519	537.91803 
577	4.800	-614.92194	119.46354	986.92694	-357.31500	174.01807	1037.98877	-547.83752	354.88406	1015.62793	-490.15079	368.34641	1023.61926	-296.89639	221.54593	856.71948	-292.28214	144.55318	619.00592	-336.36755	113.98497	737.34607	-328.28897	89.66926	537.11487 
578	4.808	-614.91785	119.94842	987.00336	-356.87695	173.72542	1037.46338	-547.45020	355.19412	1015.62030	-489.44855	368.39984	1023.28967	-298.35114	219.60382	855.51477	-296.93530	142.39030	617.87897	-341.04755	112.48081	736.51642	-333.84491	87.02679	537.11621 
579	4.817	-615.05579	120.47096	987.09851	-356.63739	173.41347	1036.89514	-546.88043	355.56555	1015.28815	-488.93509	368.57611	1022.89673	-299.57132	217.78870	854.37708	-301.11935	140.34906	616.81885	-345.51080	111.36551	735.75854	-339.07855	85.67559	536.27069 
580	4.825	-615.32208	121.06933	987.24866	-356.46072	173.07115	1036.34570	-546.18042	356.01968	1015.17542	-488.27545	368.65628	1022.54810	-300.89233	215.96278	853.18201	-305.23898	138.38995	615.81049	-349.78000	110.11983	735.00977	-343.95938	84.47527	535.26941 
581	4.833	-615.66882	121.73174	987.22015	-356.42624	172.67845	1035.66125	-545.64685	356.38025	1015.00183	-487.56403	368.78519	1022.16016	-302.09799	214.37250	851.98987	-308.99945	136.66165	614.77985	-353.74875	109.22323	734.38684	-348.68799	82.93741	533.84204 
582	4.842	-616.23987	122.50217	987.21704	-356.49216	172.29915	1034.79102	-545.11792	356.67273	1014.79468	-486.82059	368.85361	1021.79590	-303.26312	212.89206	850.91901	-312.41452	135.17996	613.84387	-357.46365	108.40001	733.67682	-353.11646	81.57576	532.93500 
583	4.850	-616.87610	123.19088	987.17902	-356.55157	171.78166	1034.02161	-544.44775	357.05225	1014.64264	-486.24170	368.93222	1021.43573	-304.37460	211.65706	849.90991	-315.54382	133.70789	612.97864	-360.65182	107.65163	733.03357	-357.11270	80.26257	532.20007 
584	4.858	-617.46600	123.81918	987.18182	-356.70596	171.13541	1033.31372	-543.82849	357.45358	1014.50000	-485.45972	369.05524	1021.11084	-305.34131	210.28705	848.99841	-318.53400	132.24010	612.16162	-363.44525	106.80777	732.36646	-360.84167	78.95457	531.52106 
585	4.867	-617.99457	124.39705	987.00201	-356.99152	170.46201	1032.56787	-543.30890	357.81683	1014.36096	-484.71606	369.11618	1020.77051	-306.34106	209.06374	848.09509	-321.17944	131.01579	611.27161	-365.81958	105.92832	731.82300	-364.06241	77.73925	530.96271 
